<?xml version="1.0" encoding="UTF-8" standalone="no"?>
<!-- Created with Inkscape (http://www.inkscape.org/) -->

<svg
   width="297mm"
   height="210mm"
   viewBox="0 0 297 210"
   version="1.1"
   id="svg3552"
   inkscape:version="1.2.1 (9c6d41e410, 2022-07-14, custom)"
   sodipodi:docname="icosahedron.svg"
   xmlns:inkscape="http://www.inkscape.org/namespaces/inkscape"
   xmlns:sodipodi="http://sodipodi.sourceforge.net/DTD/sodipodi-0.dtd"
   xmlns="http://www.w3.org/2000/svg"
   xmlns:svg="http://www.w3.org/2000/svg">
  <sodipodi:namedview
     id="namedview3554"
     pagecolor="#ffffff"
     bordercolor="#666666"
     borderopacity="1.0"
     inkscape:showpageshadow="2"
     inkscape:pageopacity="0.0"
     inkscape:pagecheckerboard="0"
     inkscape:deskcolor="#d1d1d1"
     inkscape:document-units="mm"
     showgrid="false"
     inkscape:zoom="1.1893044"
     inkscape:cx="1059.8632"
     inkscape:cy="623.8941"
     inkscape:window-width="3840"
     inkscape:window-height="2095"
     inkscape:window-x="0"
     inkscape:window-y="0"
     inkscape:window-maximized="1"
     inkscape:current-layer="layer1" />
  <defs
     id="defs3549" />
  <g
     inkscape:label="Layer 1"
     inkscape:groupmode="layer"
     id="layer1">
    <g
       id="g769"
       transform="rotate(-90,104.32345,105.17656)">
      <path
         style="fill:none;stroke:#000000;stroke-width:0.330729px;stroke-linecap:butt;stroke-linejoin:miter;stroke-opacity:1"
         d="m 170.67559,33.7132 c 0,16.666705 0,33.333424 1.3e-4,50.000129"
         id="path232647-1-0" />
      <path
         style="fill:none;stroke:#000000;stroke-width:0.330729px;stroke-linecap:butt;stroke-linejoin:miter;stroke-opacity:1"
         d="M 127.37477,58.714733 84.073936,33.715962"
         id="path232577-8"
         sodipodi:nodetypes="cc" />
      <path
         style="fill:none;stroke:#000000;stroke-width:0.330729px;stroke-linecap:butt;stroke-linejoin:miter;stroke-opacity:1"
         d="M 84.074186,33.714487 40.773107,58.714733"
         id="path232663-7-4-53" />
      <path
         style="fill:none;stroke:#000000;stroke-width:0.330729px;stroke-linecap:butt;stroke-linejoin:miter;stroke-opacity:1"
         d="m 84.073811,33.713575 c 0,16.666705 0,33.333424 1.25e-4,50.000129"
         id="path232647-1-8" />
      <path
         style="fill:none;stroke:#000000;stroke-width:0.330729px;stroke-linecap:butt;stroke-linejoin:miter;stroke-opacity:1"
         d="M 84.073936,83.713504 127.37477,58.714733"
         id="path232577-8-7-1"
         sodipodi:nodetypes="cc" />
      <path
         style="fill:none;stroke:#000000;stroke-width:0.330729px;stroke-linecap:butt;stroke-linejoin:miter;stroke-opacity:1"
         d="m 127.37464,58.712346 c 0,16.666705 0,33.333424 1.3e-4,50.000134"
         id="path232647-1-9" />
      <path
         style="fill:none;stroke:#000000;stroke-width:0.330729px;stroke-linecap:butt;stroke-linejoin:miter;stroke-opacity:1"
         d="m 127.37452,8.7127532 c 0,16.6667058 0,33.3334248 1.2e-4,50.0001298"
         id="path232647-1-9-6" />
      <path
         style="fill:none;stroke:#000000;stroke-width:0.330729px;stroke-linecap:butt;stroke-linejoin:miter;stroke-opacity:1"
         d="M 127.37477,108.71228 84.073936,83.713504"
         id="path232577-8-6"
         sodipodi:nodetypes="cc" />
      <path
         style="fill:none;stroke:#000000;stroke-width:0.330729px;stroke-linecap:butt;stroke-linejoin:miter;stroke-opacity:1"
         d="m 127.37452,58.713258 43.30107,25.000246"
         id="path232663-7-4-5-4" />
      <path
         style="fill:none;stroke:#000000;stroke-width:0.330729px;stroke-linecap:butt;stroke-linejoin:miter;stroke-opacity:1"
         d="M 84.074186,83.712029 40.773107,108.71228"
         id="path232663-7-4-53-3" />
      <path
         style="fill:none;stroke:#000000;stroke-width:0.330729px;stroke-linecap:butt;stroke-linejoin:miter;stroke-opacity:1"
         d="m 84.073811,83.711117 c 0,16.666703 0,33.333423 1.25e-4,50.000133"
         id="path232647-1-8-3" />
      <path
         style="fill:none;stroke:#000000;stroke-width:0.330729px;stroke-linecap:butt;stroke-linejoin:miter;stroke-opacity:1"
         d="M 84.073936,133.71105 127.37477,108.71228"
         id="path232577-8-7-1-6"
         sodipodi:nodetypes="cc" />
      <path
         style="fill:none;stroke:#000000;stroke-width:0.330729px;stroke-linecap:butt;stroke-linejoin:miter;stroke-opacity:1"
         d="m 127.37489,108.71136 c 0,16.66671 0,33.33343 1.3e-4,50.00013"
         id="path232647-1-4" />
      <path
         style="fill:none;stroke:#000000;stroke-width:0.330729px;stroke-linecap:butt;stroke-linejoin:miter;stroke-opacity:1"
         d="M 127.37502,158.71129 84.074186,133.71252"
         id="path232577-8-88"
         sodipodi:nodetypes="cc" />
      <path
         style="fill:none;stroke:#000000;stroke-width:0.330729px;stroke-linecap:butt;stroke-linejoin:miter;stroke-opacity:1"
         d="m 127.37477,108.71228 43.30107,25.00024"
         id="path232663-7-4-5-8" />
      <path
         style="fill:none;stroke:#000000;stroke-width:0.330729px;stroke-linecap:butt;stroke-linejoin:miter;stroke-opacity:1"
         d="M 84.074436,133.71105 40.773357,158.71129"
         id="path232663-7-4-53-7" />
      <path
         style="fill:none;stroke:#000000;stroke-width:0.330729px;stroke-linecap:butt;stroke-linejoin:miter;stroke-opacity:1"
         d="m 84.074061,133.71013 c 0,16.66671 0,33.33343 1.25e-4,50.00013"
         id="path232647-1-8-7" />
      <path
         style="fill:none;stroke:#000000;stroke-width:0.330729px;stroke-linecap:butt;stroke-linejoin:miter;stroke-opacity:1"
         d="M 84.074186,183.71006 127.37502,158.71129"
         id="path232577-8-7-1-4"
         sodipodi:nodetypes="cc" />
      <path
         style="fill:none;stroke:#000000;stroke-width:0.330729px;stroke-linecap:butt;stroke-linejoin:miter;stroke-opacity:1"
         d="m 127.37489,158.7089 c 0,16.66671 0,33.33343 1.3e-4,50.00013"
         id="path232647-1-9-3" />
      <path
         style="fill:none;stroke:#000000;stroke-width:0.330729px;stroke-linecap:butt;stroke-linejoin:miter;stroke-opacity:1"
         d="M 127.37502,208.70883 84.074186,183.71006"
         id="path232577-8-6-0"
         sodipodi:nodetypes="cc" />
      <path
         style="fill:none;stroke:#000000;stroke-width:0.330729px;stroke-linecap:butt;stroke-linejoin:miter;stroke-opacity:1"
         d="m 127.37477,158.70982 43.30107,25.00024"
         id="path232663-7-4-5-4-3" />
      <path
         style="fill:none;stroke:#000000;stroke-width:0.330729px;stroke-linecap:butt;stroke-linejoin:miter;stroke-opacity:1"
         d="M 84.074436,183.70859 40.773357,208.70883"
         id="path232663-7-4-53-3-9" />
      <path
         style="fill:none;stroke:#000000;stroke-width:0.330729px;stroke-linecap:butt;stroke-linejoin:miter;stroke-opacity:1"
         d="m 84.074061,183.70768 c 0,16.6667 0,33.33342 1.25e-4,50.00013"
         id="path232647-1-8-3-2" />
      <path
         style="fill:none;stroke:#000000;stroke-width:0.330729px;stroke-linecap:butt;stroke-linejoin:miter;stroke-opacity:1"
         d="M 84.074186,233.70761 40.773357,208.70883"
         id="path232577-8-8-8-5"
         sodipodi:nodetypes="cc" />
      <path
         style="fill:none;stroke:#000000;stroke-width:0.330729px;stroke-linecap:butt;stroke-linejoin:miter;stroke-opacity:1"
         d="M 84.074186,233.70761 127.37502,208.70883"
         id="path232577-8-7-1-6-4"
         sodipodi:nodetypes="cc" />
      <path
         style="fill:none;stroke:#000000;stroke-width:0.330729px;stroke-linecap:butt;stroke-linejoin:miter;stroke-opacity:1"
         d="m 127.37514,208.70792 c 0,16.66671 0,33.33343 1.3e-4,50.00013"
         id="path232647-1-5" />
      <path
         style="fill:none;stroke:#000000;stroke-width:0.330729px;stroke-linecap:butt;stroke-linejoin:miter;stroke-opacity:1"
         d="M 127.37527,258.70785 84.074436,233.70908"
         id="path232577-8-9"
         sodipodi:nodetypes="cc" />
      <path
         style="fill:none;stroke:#000000;stroke-width:0.330729px;stroke-linecap:butt;stroke-linejoin:miter;stroke-opacity:1"
         d="m 127.37502,208.70883 43.30107,25.00025"
         id="path232663-7-4-5-46" />
      <path
         style="fill:none;stroke:#000000;stroke-width:0.330729px;stroke-linecap:butt;stroke-linejoin:miter;stroke-opacity:1"
         d="m 84.074311,233.70649 c 0,16.66671 0,33.33343 1.25e-4,50.00013"
         id="path232647-1-8-4" />
      <path
         style="fill:none;stroke:#000000;stroke-width:0.330729px;stroke-linecap:butt;stroke-linejoin:miter;stroke-opacity:1"
         d="M 84.074436,283.70662 127.37527,258.70785"
         id="path232577-8-7-1-7"
         sodipodi:nodetypes="cc" />
      <path
         style="fill:none;stroke:#ff0000;stroke-width:0.330729px;stroke-linecap:butt;stroke-linejoin:miter;stroke-opacity:1"
         d="m 84.074311,233.70782 -43.300704,25.00003 -2.5e-4,-49.99902 0.779001,-8.90397 34.422063,-19.8728 8.099765,3.778 -43.300829,-24.99877 0.779001,-8.90398 34.422063,-19.8728 8.099515,3.77654 -43.300829,-24.99877 0.779001,-8.903984 34.422063,-19.872799 8.099765,3.778007 -43.300829,-24.998771 0.778754,-8.903384 25.264183,-14.586844 17.256642,-1.50913 43.301954,-24.9994343 7.32089,5.1239973 v 39.746773 l -7.32151,5.126622 43.30095,-25.000133 7.32189,5.126734 v 39.746773 l -7.32152,5.126622 -43.30182,24.998951 8.10001,-3.77654 34.42206,19.8728 0.779,8.90398 -43.30082,24.99877 8.09976,-3.778 34.42206,19.87279 0.779,8.90398 -43.30082,24.99877 8.10001,-3.77653 34.42206,19.8728 0.779,8.90398 -43.30182,24.99822 -0.77788,8.90271 -34.421439,19.87392 -8.100515,-3.77731 -7.322513,-15.7171 v -29.15629 l 7.321638,-5.12562"
         id="path3019-2-6"
         sodipodi:nodetypes="ccccccccccccccccccccccccccccccccccccccccccccc" />
    </g>
  </g>
</svg>
